<svg xmlns="http://www.w3.org/2000/svg" width="16.917" height="16.918" viewBox="0 0 16.917 16.918">
  <g id="wallet" transform="translate(0 0)">
    <g id="Group_2942" data-name="Group 2942" transform="translate(0 0)">
      <path id="Path_1912" data-name="Path 1912" d="M 2 5 L 2 17 C 2 18.1 2.9 19 4 19 L 18 19 L 22 23 L 21.99 5 C 21.99 3.9 21.099999999999998 3 20 3 L 4 3 C 2.9 3 2 3.9 2 5 z M 7 6 L 17 6 L 17 8 L 7 8 L 7 6 z M 7 10 L 17 10 L 17 12 L 7 12 L 7 10 z M 7 14 L 14 14 L 14 16 L 7 16 L 7 14 z" transform="translate(0 0)" fill="#8a98b8"/>
    </g>
  </g>
</svg>
